{"title":"Australiens.2015.WEBRip.x264-AUSHD","uid":15505771,"size":1445572166,"categoryP":"video","categoryS":"movies","magnet":"?xt=urn:btih:d05fd52bdbf55d67f00dd4bfbfa75fe1e7c78281&amp;dn=Australiens.2015.WEBRip.x264-AUSHD&amp;tr=udp%3A%2F%2Ftracker.leechers-paradise.org%3A6969&amp;tr=udp%3A%2F%2Fzer0day.ch%3A1337&amp;tr=udp%3A%2F%2Fopen.demonii.com%3A1337&amp;tr=udp%3A%2F%2Ftracker.coppersurfer.tk%3A6969&amp;tr=udp%3A%2F%2Fexodus.desync.com%3A6969","seeders":2,"leechers":0,"uploader":"djflickit","files":1,"time":1470580407,"description":"At the age of 10, Brisbanite Andi Gibson had what she describes as a close encounter with a flying saucer. Naturally, everyone assumed she was bonkers. That is, until the aliens returned 17 years later, but this time with they have an entire armada at their back and total domination on their minds. With the military outmatched in every way, it's up to Andi, her hypochondriac brother Elliot, retired boxer cousin Keith and documentary filmmaker friend Cam to battle car-chasing spaceships, kung-fu aliens and giant killer robots. Bloody hell, this is gonna be a long night!\r\n\r\nFollowing up from their debut feature THE KILLAGE, Joe Bauer, Rita Artmann and the Artspear team return with a hilarious, special-effects laden sci-fi- comedy-horror of epic proportions you won’t want to miss.\r\n\r\n\r\n\r\nGeneral\r\nFormat                      : MPEG-4\r\nFormat profile              : Base Media\r\nCodec ID                    : isom (isom/iso2/avc1/mp41)\r\nFile size                   : 1.35 GiB\r\nDuration                    : 1 h 51 min\r\nOverall bit rate mode       : Variable\r\nOverall bit rate            : 1 734 kb/s\r\nMovie name                  : Australiens\r\nPerformer                   : Joe Bauer\r\nGenre                       : Sci-Fi &amp; Fantasy\r\nRecorded date               : UTC 2016-07-20 07:00:00\r\nTagged date                 : UTC 2016-08-07 11:40:47\r\nCover                       : Yes\r\n\r\nVideo\r\nID                          : 2\r\nFormat                      : AVC\r\nFormat/Info                 : Advanced Video Codec\r\nFormat profile              :   \r\nFormat settings, CABAC      : No\r\nFormat settings, ReFrames   : 3 frames\r\nCodec ID                    : avc1\r\nCodec ID/Info               : Advanced Video Coding\r\nDuration                    : 1 h 51 min\r\nBit rate                    : 1 577 kb/s\r\nWidth                       : 854 pixels\r\nHeight                      : 476 pixels\r\nDisplay aspect ratio        : 16:9\r\nFrame rate mode             : Constant\r\nFrame rate                  : 24.000 FPS\r\nColor space                 : YUV\r\nChroma subsampling          : 4:2:0\r\nBit depth                   : 8 bits\r\nScan type                   : Progressive\r\nBits/(Pixel*Frame)          : 0.162\r\nStream size                 : 1.22 GiB (91%)\r\nWriting library             : x264 core 135\r\n\r\nAudio\r\nID                          : 1\r\nFormat                      : AAC\r\nFormat/Info                 : Advanced Audio Codec\r\nFormat profile              : LC\r\nCodec ID                    : 40\r\nDuration                    : 1 h 51 min\r\nBit rate mode               : Variable\r\nBit rate                    : 152 kb/s\r\nMaximum bit rate            : 277 kb/s\r\nChannel(s)                  : 2 channels\r\nChannel positions           : Front: L R\r\nSampling rate               : 44.1 kHz\r\nFrame rate                  : 43.066 FPS (1024 spf)\r\nCompression mode            : Lossy\r\nStream size                 : 121 MiB (9%)\r\nLanguage                    : English\r\nDefault                     : Yes\r\nAlternate group             : 1\r\nMenus                       : 3","torrent":{"xt":"urn:btih:d05fd52bdbf55d67f00dd4bfbfa75fe1e7c78281","amp;dn":"Australiens.2015.WEBRip.x264-AUSHD","amp;tr":["udp%3A%2F%2Ftracker.leechers-paradise.org%3A6969","udp%3A%2F%2Fzer0day.ch%3A1337","udp%3A%2F%2Fopen.demonii.com%3A1337","udp%3A%2F%2Ftracker.coppersurfer.tk%3A6969","udp%3A%2F%2Fexodus.desync.com%3A6969"],"infoHash":"d05fd52bdbf55d67f00dd4bfbfa75fe1e7c78281","infoHashBuffer":{"type":"Buffer","data":[208,95,213,43,219,245,93,103,240,13,212,191,191,167,95,225,231,199,130,129]},"announce":[],"urlList":[]}}